STARTFONT 2.1
COMMENT
COMMENT Converted from OpenType font "DirectiveFourBold-9vEn.ttf" by "otf2bdf 3.0".
COMMENT
FONT -FreeType-Directive Four-Bold-R-Normal--17-120-100-100-P-96-ISO10646-1
SIZE 12 100 100
FONTBOUNDINGBOX 24 21 -3 -4
STARTPROPERTIES 19
FOUNDRY "FreeType"
FAMILY_NAME "Directive Four"
WEIGHT_NAME "Bold"
SLANT "R"
SETWIDTH_NAME "Normal"
ADD_STYLE_NAME ""
PIXEL_SIZE 17
POINT_SIZE 120
RESOLUTION_X 100
RESOLUTION_Y 100
SPACING "P"
AVERAGE_WIDTH 96
CHARSET_REGISTRY "ISO10646"
CHARSET_ENCODING "1"
FONT_ASCENT 16
FONT_DESCENT 3
COPYRIGHT "Directive Four © (Neale Davidson). 2011. All Rights Reserved"
_OTF_FONTFILE "DirectiveFourBold-9vEn.ttf"
_OTF_PSNAME "DirectiveFour-Bold"
ENDPROPERTIES
CHARS 242
STARTCHAR 0000
ENCODING 0
SWIDTH 0 0
DWIDTH 0 0
BBX 0 0 0 0
BITMAP
ENDCHAR
STARTCHAR 001D
ENCODING 29
SWIDTH 0 0
DWIDTH 0 0
BBX 0 0 0 0
BITMAP
ENDCHAR
STARTCHAR 0020
ENCODING 32
SWIDTH 420 0
DWIDTH 7 0
BBX 0 0 0 0
BITMAP
ENDCHAR
STARTCHAR 0021
ENCODING 33
SWIDTH 240 0
DWIDTH 4 0
BBX 2 12 1 0
BITMAP
C0
C0
C0
C0
C0
C0
C0
C0
C0
C0
C0
C0
ENDCHAR
STARTCHAR 0022
ENCODING 34
SWIDTH 360 0
DWIDTH 6 0
BBX 4 3 1 9
BITMAP
F0
F0
F0
ENDCHAR
STARTCHAR 0023
ENCODING 35
SWIDTH 660 0
DWIDTH 11 0
BBX 9 10 1 1
BITMAP
3300
3300
FF80
FF80
3300
FF80
FF80
3300
3300
3300
ENDCHAR
STARTCHAR 0024
ENCODING 36
SWIDTH 840 0
DWIDTH 14 0
BBX 12 12 1 0
BITMAP
0600
7FF0
FFF0
C600
C600
FFC0
7FF0
0630
0630
FFF0
FFC0
0600
ENDCHAR
STARTCHAR 0025
ENCODING 37
SWIDTH 780 0
DWIDTH 13 0
BBX 11 12 1 0
BITMAP
7B00
FF00
CE00
C600
CE00
FFC0
7FE0
0E60
0C60
0E60
1FE0
1BC0
ENDCHAR
STARTCHAR 0026
ENCODING 38
SWIDTH 780 0
DWIDTH 13 0
BBX 11 12 1 0
BITMAP
7F00
FF80
C180
C180
FFE0
FFE0
C180
C180
C180
C180
FFE0
7EE0
ENDCHAR
STARTCHAR 0027
ENCODING 39
SWIDTH 240 0
DWIDTH 4 0
BBX 2 3 1 9
BITMAP
C0
C0
C0
ENDCHAR
STARTCHAR 0028
ENCODING 40
SWIDTH 540 0
DWIDTH 9 0
BBX 7 14 1 -1
BITMAP
7E
FE
C0
C0
C0
C0
C0
C0
C0
C0
C0
C0
FE
7E
ENDCHAR
STARTCHAR 0029
ENCODING 41
SWIDTH 540 0
DWIDTH 9 0
BBX 7 14 1 -1
BITMAP
FC
FE
06
06
06
06
06
06
06
06
06
06
FE
FC
ENDCHAR
STARTCHAR 002A
ENCODING 42
SWIDTH 480 0
DWIDTH 8 0
BBX 6 7 1 6
BITMAP
30
30
FC
FC
78
FC
48
ENDCHAR
STARTCHAR 002B
ENCODING 43
SWIDTH 660 0
DWIDTH 11 0
BBX 9 9 1 2
BITMAP
0C00
0C00
0C00
0C00
FF80
FF80
0C00
0C00
0C00
ENDCHAR
STARTCHAR 002C
ENCODING 44
SWIDTH 240 0
DWIDTH 4 0
BBX 2 3 1 -1
BITMAP
C0
C0
C0
ENDCHAR
STARTCHAR 002D
ENCODING 45
SWIDTH 660 0
DWIDTH 11 0
BBX 9 2 1 5
BITMAP
FF80
FF80
ENDCHAR
STARTCHAR 002E
ENCODING 46
SWIDTH 240 0
DWIDTH 4 0
BBX 2 2 1 0
BITMAP
C0
C0
ENDCHAR
STARTCHAR 002F
ENCODING 47
SWIDTH 480 0
DWIDTH 8 0
BBX 6 12 1 0
BITMAP
0C
0C
18
18
30
30
30
60
60
E0
C0
C0
ENDCHAR
STARTCHAR 0030
ENCODING 48
SWIDTH 780 0
DWIDTH 13 0
BBX 11 12 1 0
BITMAP
7FC0
FFE0
C060
C060
C060
C060
C060
C060
C060
C060
FFE0
7FC0
ENDCHAR
STARTCHAR 0031
ENCODING 49
SWIDTH 240 0
DWIDTH 4 0
BBX 2 12 1 0
BITMAP
C0
C0
C0
C0
C0
C0
C0
C0
C0
C0
C0
C0
ENDCHAR
STARTCHAR 0032
ENCODING 50
SWIDTH 780 0
DWIDTH 13 0
BBX 11 12 1 0
BITMAP
FFC0
FFE0
0060
0060
0060
7FE0
FFC0
C000
C000
C000
FFE0
FFE0
ENDCHAR
STARTCHAR 0033
ENCODING 51
SWIDTH 780 0
DWIDTH 13 0
BBX 11 12 1 0
BITMAP
FFC0
FFE0
0060
0060
0060
3FE0
3FE0
0060
0060
0060
FFE0
FFC0
ENDCHAR
STARTCHAR 0034
ENCODING 52
SWIDTH 720 0
DWIDTH 12 0
BBX 11 12 1 0
BITMAP
0E00
0C00
1C00
1800
3800
3000
7180
6180
FFE0
FFE0
0180
0180
ENDCHAR
STARTCHAR 0035
ENCODING 53
SWIDTH 780 0
DWIDTH 13 0
BBX 11 12 1 0
BITMAP
FFC0
FFC0
C000
C000
FFC0
FFE0
0060
0060
0060
0060
FFE0
FFC0
ENDCHAR
STARTCHAR 0036
ENCODING 54
SWIDTH 780 0
DWIDTH 13 0
BBX 11 12 1 0
BITMAP
7FC0
FFC0
C000
C000
FFC0
FFE0
C060
C060
C060
C060
FFE0
7FC0
ENDCHAR
STARTCHAR 0037
ENCODING 55
SWIDTH 720 0
DWIDTH 12 0
BBX 10 12 1 0
BITMAP
FFC0
FFC0
0180
0180
0300
0300
0700
0600
0E00
0C00
0C00
1800
ENDCHAR
STARTCHAR 0038
ENCODING 56
SWIDTH 780 0
DWIDTH 13 0
BBX 11 12 1 0
BITMAP
7FC0
FFE0
C060
C060
C060
FFE0
FFE0
C060
C060
C060
FFE0
7FC0
ENDCHAR
STARTCHAR 0039
ENCODING 57
SWIDTH 780 0
DWIDTH 13 0
BBX 11 12 1 0
BITMAP
7FC0
FFE0
C060
C060
C060
C060
FFE0
7FE0
0060
0060
7FE0
7FC0
ENDCHAR
STARTCHAR 003A
ENCODING 58
SWIDTH 240 0
DWIDTH 4 0
BBX 2 7 1 0
BITMAP
C0
C0
00
00
00
C0
C0
ENDCHAR
STARTCHAR 003B
ENCODING 59
SWIDTH 180 0
DWIDTH 3 0
BBX 2 8 1 -1
BITMAP
C0
C0
00
00
00
C0
C0
C0
ENDCHAR
STARTCHAR 003C
ENCODING 60
SWIDTH 660 0
DWIDTH 11 0
BBX 10 9 1 1
BITMAP
01C0
0FC0
7E00
F000
E000
FC00
1F80
03C0
0040
ENDCHAR
STARTCHAR 003D
ENCODING 61
SWIDTH 660 0
DWIDTH 11 0
BBX 9 5 1 3
BITMAP
FF80
FF80
0000
FF80
FF80
ENDCHAR
STARTCHAR 003E
ENCODING 62
SWIDTH 660 0
DWIDTH 11 0
BBX 10 8 1 1
BITMAP
E000
FC00
3F80
03C0
03C0
1F80
FC00
E000
ENDCHAR
STARTCHAR 003F
ENCODING 63
SWIDTH 780 0
DWIDTH 13 0
BBX 12 12 0 0
BITMAP
FFE0
FFF0
0030
0030
0030
0FF0
1FE0
1800
1800
0000
1800
1800
ENDCHAR
STARTCHAR 0040
ENCODING 64
SWIDTH 720 0
DWIDTH 12 0
BBX 10 12 1 0
BITMAP
7FC0
FFC0
DFC0
FFC0
F0C0
F0C0
F0C0
FFC0
DFC0
C000
FF80
7F80
ENDCHAR
STARTCHAR 0041
ENCODING 65
SWIDTH 780 0
DWIDTH 13 0
BBX 11 12 1 0
BITMAP
0E00
0E00
1B00
1B00
3980
3180
3180
7FC0
7FC0
E0E0
C060
C060
ENDCHAR
STARTCHAR 0042
ENCODING 66
SWIDTH 840 0
DWIDTH 14 0
BBX 12 12 1 0
BITMAP
FFE0
FFF0
C030
C030
C030
FFF0
FFF0
C030
C030
C030
FFF0
FFE0
ENDCHAR
STARTCHAR 0043
ENCODING 67
SWIDTH 840 0
DWIDTH 14 0
BBX 12 12 1 0
BITMAP
7FF0
FFF0
C000
C000
C000
C000
C000
C000
C000
C000
FFF0
7FF0
ENDCHAR
STARTCHAR 0044
ENCODING 68
SWIDTH 840 0
DWIDTH 14 0
BBX 12 12 1 0
BITMAP
FFE0
FFF0
C030
C030
C030
C030
C030
C030
C030
C030
FFF0
FFE0
ENDCHAR
STARTCHAR 0045
ENCODING 69
SWIDTH 840 0
DWIDTH 14 0
BBX 12 12 1 0
BITMAP
7FF0
FFF0
C000
C000
C000
FFC0
FFC0
C000
C000
C000
FFF0
7FF0
ENDCHAR
STARTCHAR 0046
ENCODING 70
SWIDTH 840 0
DWIDTH 14 0
BBX 12 12 1 0
BITMAP
7FF0
FFF0
C000
C000
C000
FFC0
FFC0
C000
C000
C000
C000
C000
ENDCHAR
STARTCHAR 0047
ENCODING 71
SWIDTH 840 0
DWIDTH 14 0
BBX 12 12 1 0
BITMAP
7FF0
FFF0
C000
C000
C000
C3F0
C3F0
C030
C030
C030
FFF0
7FE0
ENDCHAR
STARTCHAR 0048
ENCODING 72
SWIDTH 840 0
DWIDTH 14 0
BBX 12 12 1 0
BITMAP
C030
C030
C030
C030
C030
FFF0
FFF0
C030
C030
C030
C030
C030
ENDCHAR
STARTCHAR 0049
ENCODING 73
SWIDTH 240 0
DWIDTH 4 0
BBX 2 12 1 0
BITMAP
C0
C0
C0
C0
C0
C0
C0
C0
C0
C0
C0
C0
ENDCHAR
STARTCHAR 004A
ENCODING 74
SWIDTH 720 0
DWIDTH 12 0
BBX 10 12 1 0
BITMAP
00C0
00C0
00C0
00C0
00C0
00C0
00C0
00C0
00C0
00C0
FFC0
FF80
ENDCHAR
STARTCHAR 004B
ENCODING 75
SWIDTH 780 0
DWIDTH 13 0
BBX 12 12 1 0
BITMAP
C070
C0E0
C180
C300
C600
CC00
DE00
F300
E180
C0C0
C0E0
C070
ENDCHAR
STARTCHAR 004C
ENCODING 76
SWIDTH 720 0
DWIDTH 12 0
BBX 10 12 1 0
BITMAP
C000
C000
C000
C000
C000
C000
C000
C000
C000
C000
FFC0
7FC0
ENDCHAR
STARTCHAR 004D
ENCODING 77
SWIDTH 900 0
DWIDTH 15 0
BBX 13 12 1 0
BITMAP
E038
E038
E038
F078
F078
F8F8
D8D8
D8D8
CD98
CD98
CF98
C718
ENDCHAR
STARTCHAR 004E
ENCODING 78
SWIDTH 840 0
DWIDTH 14 0
BBX 12 12 1 0
BITMAP
E030
E030
F030
D830
CC30
CE30
C730
C330
C1B0
C0F0
C070
C070
ENDCHAR
STARTCHAR 004F
ENCODING 79
SWIDTH 840 0
DWIDTH 14 0
BBX 12 12 1 0
BITMAP
7FE0
FFF0
C030
C030
C030
C030
C030
C030
C030
C030
FFF0
7FE0
ENDCHAR
STARTCHAR 0050
ENCODING 80
SWIDTH 840 0
DWIDTH 14 0
BBX 12 12 1 0
BITMAP
FFE0
FFF0
C030
C030
C030
C030
FFF0
FFE0
C000
C000
C000
C000
ENDCHAR
STARTCHAR 0051
ENCODING 81
SWIDTH 840 0
DWIDTH 14 0
BBX 12 13 1 -1
BITMAP
7FE0
FFF0
C030
C030
C030
C030
C030
C030
C630
C630
FFF0
7FE0
0600
ENDCHAR
STARTCHAR 0052
ENCODING 82
SWIDTH 840 0
DWIDTH 14 0
BBX 12 12 1 0
BITMAP
FFE0
FFF0
C030
C030
C030
C030
FFF0
FFF0
C030
C030
C030
C030
ENDCHAR
STARTCHAR 0053
ENCODING 83
SWIDTH 840 0
DWIDTH 14 0
BBX 12 12 1 0
BITMAP
7FF0
FFF0
C000
C000
C000
FFE0
7FF0
0030
0030
0030
FFF0
FFE0
ENDCHAR
STARTCHAR 0054
ENCODING 84
SWIDTH 840 0
DWIDTH 14 0
BBX 12 12 1 0
BITMAP
FFF0
FFF0
0600
0600
0600
0600
0600
0600
0600
0600
0600
0600
ENDCHAR
STARTCHAR 0055
ENCODING 85
SWIDTH 840 0
DWIDTH 14 0
BBX 12 12 1 0
BITMAP
C030
C030
C030
C030
C030
C030
C030
C030
C030
C030
FFF0
7FE0
ENDCHAR
STARTCHAR 0056
ENCODING 86
SWIDTH 720 0
DWIDTH 12 0
BBX 12 12 0 0
BITMAP
C030
6070
6060
7060
30C0
30C0
18C0
1980
1980
0F00
0F00
0700
ENDCHAR
STARTCHAR 0057
ENCODING 87
SWIDTH 1020 0
DWIDTH 17 0
BBX 16 12 0 0
BITMAP
C1C3
61C3
63C3
63C3
6366
7366
3666
366C
363C
3E3C
1C3C
1C38
ENDCHAR
STARTCHAR 0058
ENCODING 88
SWIDTH 720 0
DWIDTH 12 0
BBX 12 12 0 0
BITMAP
E070
7060
30C0
1980
0F80
0700
0700
0F00
1980
30C0
7060
E070
ENDCHAR
STARTCHAR 0059
ENCODING 89
SWIDTH 720 0
DWIDTH 12 0
BBX 12 12 0 0
BITMAP
E070
60E0
30C0
1980
0F00
0F00
0600
0600
0600
0600
0600
0600
ENDCHAR
STARTCHAR 005A
ENCODING 90
SWIDTH 840 0
DWIDTH 14 0
BBX 12 12 1 0
BITMAP
FFF0
FFE0
00C0
0180
0300
0700
0E00
0C00
1800
3000
7FF0
FFF0
ENDCHAR
STARTCHAR 005B
ENCODING 91
SWIDTH 540 0
DWIDTH 9 0
BBX 7 14 1 -1
BITMAP
FE
FE
C0
C0
C0
C0
C0
C0
C0
C0
C0
C0
FE
FE
ENDCHAR
STARTCHAR 005C
ENCODING 92
SWIDTH 480 0
DWIDTH 8 0
BBX 6 12 1 0
BITMAP
C0
C0
E0
60
60
30
30
30
18
18
0C
0C
ENDCHAR
STARTCHAR 005D
ENCODING 93
SWIDTH 540 0
DWIDTH 9 0
BBX 7 14 1 -1
BITMAP
FE
FE
06
06
06
06
06
06
06
06
06
06
FE
FE
ENDCHAR
STARTCHAR 005E
ENCODING 94
SWIDTH 720 0
DWIDTH 12 0
BBX 10 4 1 12
BITMAP
0C00
3F00
F3C0
C0C0
ENDCHAR
STARTCHAR 005F
ENCODING 95
SWIDTH 720 0
DWIDTH 12 0
BBX 10 2 1 -3
BITMAP
FFC0
FFC0
ENDCHAR
STARTCHAR 0060
ENCODING 96
SWIDTH 420 0
DWIDTH 7 0
BBX 6 5 1 12
BITMAP
F0
70
78
38
1C
ENDCHAR
STARTCHAR 0061
ENCODING 97
SWIDTH 660 0
DWIDTH 11 0
BBX 9 9 1 0
BITMAP
7F80
FF80
C180
C180
C180
C180
C180
FF80
7F80
ENDCHAR
STARTCHAR 0062
ENCODING 98
SWIDTH 660 0
DWIDTH 11 0
BBX 9 12 1 0
BITMAP
C000
C000
C000
FF00
FF80
C180
C180
C180
C180
C180
FF80
FF00
ENDCHAR
STARTCHAR 0063
ENCODING 99
SWIDTH 660 0
DWIDTH 11 0
BBX 10 9 1 0
BITMAP
7FC0
FFC0
C000
C000
C000
C000
C000
FFC0
7FC0
ENDCHAR
STARTCHAR 0064
ENCODING 100
SWIDTH 660 0
DWIDTH 11 0
BBX 9 12 1 0
BITMAP
0180
0180
0180
7F80
FF80
C180
C180
C180
C180
C180
FF80
7F80
ENDCHAR
STARTCHAR 0065
ENCODING 101
SWIDTH 660 0
DWIDTH 11 0
BBX 9 9 1 0
BITMAP
7F00
FF80
C180
C180
FF80
FF80
C000
FF00
7F00
ENDCHAR
STARTCHAR 0066
ENCODING 102
SWIDTH 480 0
DWIDTH 8 0
BBX 6 12 1 0
BITMAP
7C
FC
C0
FC
FC
C0
C0
C0
C0
C0
C0
C0
ENDCHAR
STARTCHAR 0067
ENCODING 103
SWIDTH 660 0
DWIDTH 11 0
BBX 9 12 1 -3
BITMAP
7F80
FF80
C180
C180
C180
C180
C180
FF80
7F80
0180
3F80
3F00
ENDCHAR
STARTCHAR 0068
ENCODING 104
SWIDTH 660 0
DWIDTH 11 0
BBX 9 12 1 0
BITMAP
C000
C000
C000
FF00
FF80
C180
C180
C180
C180
C180
C180
C180
ENDCHAR
STARTCHAR 0069
ENCODING 105
SWIDTH 240 0
DWIDTH 4 0
BBX 2 12 1 0
BITMAP
C0
C0
00
C0
C0
C0
C0
C0
C0
C0
C0
C0
ENDCHAR
STARTCHAR 006A
ENCODING 106
SWIDTH 240 0
DWIDTH 4 0
BBX 4 15 -1 -3
BITMAP
30
30
00
30
30
30
30
30
30
30
30
30
30
F0
E0
ENDCHAR
STARTCHAR 006B
ENCODING 107
SWIDTH 660 0
DWIDTH 11 0
BBX 9 12 1 0
BITMAP
C000
C000
C000
C380
C700
CE00
DC00
F800
FC00
CE00
C700
C380
ENDCHAR
STARTCHAR 006C
ENCODING 108
SWIDTH 240 0
DWIDTH 4 0
BBX 2 12 1 0
BITMAP
C0
C0
C0
C0
C0
C0
C0
C0
C0
C0
C0
C0
ENDCHAR
STARTCHAR 006D
ENCODING 109
SWIDTH 960 0
DWIDTH 16 0
BBX 14 9 1 0
BITMAP
7FF8
FFFC
C30C
C30C
C30C
C30C
C30C
C30C
C30C
ENDCHAR
STARTCHAR 006E
ENCODING 110
SWIDTH 660 0
DWIDTH 11 0
BBX 9 9 1 0
BITMAP
7F00
FF80
C180
C180
C180
C180
C180
C180
C180
ENDCHAR
STARTCHAR 006F
ENCODING 111
SWIDTH 660 0
DWIDTH 11 0
BBX 9 9 1 0
BITMAP
7F00
FF80
C180
C180
C180
C180
C180
FF80
7F00
ENDCHAR
STARTCHAR 0070
ENCODING 112
SWIDTH 660 0
DWIDTH 11 0
BBX 9 12 1 -3
BITMAP
FF00
FF80
C180
C180
C180
C180
C180
FF80
FF00
C000
C000
C000
ENDCHAR
STARTCHAR 0071
ENCODING 113
SWIDTH 660 0
DWIDTH 11 0
BBX 9 12 1 -3
BITMAP
7F80
FF80
C180
C180
C180
C180
C180
FF80
7F80
0180
0180
0180
ENDCHAR
STARTCHAR 0072
ENCODING 114
SWIDTH 480 0
DWIDTH 8 0
BBX 6 9 1 0
BITMAP
7C
FC
C0
C0
C0
C0
C0
C0
C0
ENDCHAR
STARTCHAR 0073
ENCODING 115
SWIDTH 660 0
DWIDTH 11 0
BBX 9 9 1 0
BITMAP
7F00
FF00
C000
FF00
7F80
0180
0180
FF80
FF00
ENDCHAR
STARTCHAR 0074
ENCODING 116
SWIDTH 480 0
DWIDTH 8 0
BBX 6 12 1 0
BITMAP
C0
C0
C0
FC
FC
C0
C0
C0
C0
C0
FC
7C
ENDCHAR
STARTCHAR 0075
ENCODING 117
SWIDTH 660 0
DWIDTH 11 0
BBX 9 9 1 0
BITMAP
C180
C180
C180
C180
C180
C180
C180
FF80
7F00
ENDCHAR
STARTCHAR 0076
ENCODING 118
SWIDTH 600 0
DWIDTH 10 0
BBX 9 9 0 0
BITMAP
C180
6180
6180
6300
3300
3300
1E00
1E00
1C00
ENDCHAR
STARTCHAR 0077
ENCODING 119
SWIDTH 720 0
DWIDTH 12 0
BBX 12 9 0 0
BITMAP
C630
E630
6760
6F60
6F60
6F60
3DE0
39C0
39C0
ENDCHAR
STARTCHAR 0078
ENCODING 120
SWIDTH 600 0
DWIDTH 10 0
BBX 9 9 0 0
BITMAP
E180
7380
3F00
1E00
0C00
1E00
3F00
7380
E180
ENDCHAR
STARTCHAR 0079
ENCODING 121
SWIDTH 660 0
DWIDTH 11 0
BBX 9 12 1 -3
BITMAP
C180
C180
C180
C180
C180
C180
C180
FF80
7F80
0180
3F80
3F00
ENDCHAR
STARTCHAR 007A
ENCODING 122
SWIDTH 660 0
DWIDTH 11 0
BBX 10 9 1 0
BITMAP
FF80
FF00
0700
0E00
1C00
1800
3000
7FC0
FFC0
ENDCHAR
STARTCHAR 007B
ENCODING 123
SWIDTH 540 0
DWIDTH 9 0
BBX 9 14 0 -1
BITMAP
0F80
1F80
1800
1800
1800
1800
F800
F800
1800
1800
1800
1800
1F80
0F80
ENDCHAR
STARTCHAR 007C
ENCODING 124
SWIDTH 240 0
DWIDTH 4 0
BBX 2 14 1 -1
BITMAP
C0
C0
C0
C0
C0
C0
C0
C0
C0
C0
C0
C0
C0
C0
ENDCHAR
STARTCHAR 007D
ENCODING 125
SWIDTH 540 0
DWIDTH 9 0
BBX 8 14 1 -1
BITMAP
F0
F8
18
18
18
18
1F
1F
18
18
18
18
F8
F0
ENDCHAR
STARTCHAR 007E
ENCODING 126
SWIDTH 660 0
DWIDTH 11 0
BBX 9 5 1 12
BITMAP
7800
F980
CD80
CF80
0780
ENDCHAR
STARTCHAR 00A0
ENCODING 160
SWIDTH 420 0
DWIDTH 7 0
BBX 0 0 0 0
BITMAP
ENDCHAR
STARTCHAR 00A1
ENCODING 161
SWIDTH 240 0
DWIDTH 4 0
BBX 2 12 1 0
BITMAP
C0
C0
00
C0
C0
C0
C0
C0
C0
C0
C0
C0
ENDCHAR
STARTCHAR 00A2
ENCODING 162
SWIDTH 660 0
DWIDTH 11 0
BBX 10 11 1 0
BITMAP
0C00
7FC0
FFC0
CC00
CC00
CC00
CC00
CC00
FFC0
7FC0
0C00
ENDCHAR
STARTCHAR 00A3
ENCODING 163
SWIDTH 840 0
DWIDTH 14 0
BBX 12 12 1 0
BITMAP
1FF0
3FF0
3000
3000
3000
FFC0
FFC0
3000
3000
3000
FFF0
FFF0
ENDCHAR
STARTCHAR 00A4
ENCODING 164
SWIDTH 600 0
DWIDTH 10 0
BBX 10 9 0 2
BITMAP
E1C0
7F80
7F80
6180
6180
6180
7F80
7F80
E1C0
ENDCHAR
STARTCHAR 00A5
ENCODING 165
SWIDTH 780 0
DWIDTH 13 0
BBX 11 12 1 0
BITMAP
C060
E0C0
6180
3380
1F00
1E00
3F80
3F80
3F80
3F80
0C00
0C00
ENDCHAR
STARTCHAR 00A6
ENCODING 166
SWIDTH 240 0
DWIDTH 4 0
BBX 2 12 1 0
BITMAP
C0
C0
C0
C0
C0
00
00
C0
C0
C0
C0
C0
ENDCHAR
STARTCHAR 00A7
ENCODING 167
SWIDTH 780 0
DWIDTH 13 0
BBX 11 14 1 -1
BITMAP
7FE0
FFE0
C000
DF00
FF80
F180
F180
71E0
31E0
3FE0
1F60
0060
FFE0
FFC0
ENDCHAR
STARTCHAR 00A8
ENCODING 168
SWIDTH 540 0
DWIDTH 9 0
BBX 7 2 1 13
BITMAP
C6
C6
ENDCHAR
STARTCHAR 00A9
ENCODING 169
SWIDTH 660 0
DWIDTH 11 0
BBX 9 9 1 4
BITMAP
3E00
6300
FF80
C080
C080
C080
C080
7F00
3E00
ENDCHAR
STARTCHAR 00AA
ENCODING 170
SWIDTH 840 0
DWIDTH 14 0
BBX 13 12 0 0
BITMAP
FFF0
8008
8008
8008
8008
8008
8008
8008
8008
8008
8008
FFF0
ENDCHAR
STARTCHAR 00AB
ENCODING 171
SWIDTH 1080 0
DWIDTH 18 0
BBX 16 9 1 1
BITMAP
01C7
0FFF
7FFC
F3E0
E3C0
FDF8
1FBF
03C7
0040
ENDCHAR
STARTCHAR 00AC
ENCODING 172
SWIDTH 840 0
DWIDTH 14 0
BBX 13 13 0 0
BITMAP
FFF8
8008
8008
8008
8008
8008
8008
8008
8008
8008
8008
8008
FFF8
ENDCHAR
STARTCHAR 00AD
ENCODING 173
SWIDTH 660 0
DWIDTH 11 0
BBX 9 2 1 5
BITMAP
FF80
FF80
ENDCHAR
STARTCHAR 00AE
ENCODING 174
SWIDTH 660 0
DWIDTH 11 0
BBX 9 9 1 4
BITMAP
3E00
4700
FF80
C380
FE80
C280
C380
4300
3E00
ENDCHAR
STARTCHAR 00AF
ENCODING 175
SWIDTH 840 0
DWIDTH 14 0
BBX 13 13 0 0
BITMAP
FFF8
8008
8008
8008
8008
8008
8008
8008
8008
8008
8008
8008
FFF8
ENDCHAR
STARTCHAR 00B0
ENCODING 176
SWIDTH 480 0
DWIDTH 8 0
BBX 6 5 1 12
BITMAP
78
FC
CC
FC
78
ENDCHAR
STARTCHAR 00B1
ENCODING 177
SWIDTH 840 0
DWIDTH 14 0
BBX 13 13 0 0
BITMAP
FFF8
8008
8008
8008
8008
8008
8008
8008
8008
8008
8008
8008
FFF8
ENDCHAR
STARTCHAR 00B2
ENCODING 178
SWIDTH 840 0
DWIDTH 14 0
BBX 13 12 0 0
BITMAP
FFF0
8008
8008
8008
8008
8008
8008
8008
8008
8008
8008
FFF0
ENDCHAR
STARTCHAR 00B3
ENCODING 179
SWIDTH 840 0
DWIDTH 14 0
BBX 13 12 0 0
BITMAP
FFF0
8008
8008
8008
8008
8008
8008
8008
8008
8008
8008
FFF0
ENDCHAR
STARTCHAR 00B4
ENCODING 180
SWIDTH 420 0
DWIDTH 7 0
BBX 6 5 1 12
BITMAP
7C
78
70
E0
C0
ENDCHAR
STARTCHAR 00B5
ENCODING 181
SWIDTH 660 0
DWIDTH 11 0
BBX 9 12 1 -3
BITMAP
C180
C180
C180
C180
C180
C180
C180
FF80
FF00
C000
C000
C000
ENDCHAR
STARTCHAR 00B6
ENCODING 182
SWIDTH 540 0
DWIDTH 9 0
BBX 7 12 1 0
BITMAP
7E
F4
F4
F4
F4
74
14
14
14
14
14
14
ENDCHAR
STARTCHAR 00B7
ENCODING 183
SWIDTH 240 0
DWIDTH 4 0
BBX 2 2 1 5
BITMAP
C0
C0
ENDCHAR
STARTCHAR 00B8
ENCODING 184
SWIDTH 300 0
DWIDTH 5 0
BBX 4 6 0 -4
BITMAP
30
30
30
30
F0
E0
ENDCHAR
STARTCHAR 00B9
ENCODING 185
SWIDTH 840 0
DWIDTH 14 0
BBX 13 12 0 0
BITMAP
FFF0
8008
8008
8008
8008
8008
8008
8008
8008
8008
8008
FFF0
ENDCHAR
STARTCHAR 00BA
ENCODING 186
SWIDTH 840 0
DWIDTH 14 0
BBX 13 12 0 0
BITMAP
FFF0
8008
8008
8008
8008
8008
8008
8008
8008
8008
8008
FFF0
ENDCHAR
STARTCHAR 00BB
ENCODING 187
SWIDTH 1080 0
DWIDTH 18 0
BBX 16 9 1 1
BITMAP
E380
FFF0
3FFE
07CF
03C7
1FBF
FDF8
E3C0
0200
ENDCHAR
STARTCHAR 00BC
ENCODING 188
SWIDTH 840 0
DWIDTH 14 0
BBX 13 13 0 0
BITMAP
FFF8
8008
8008
8008
8008
8008
8008
8008
8008
8008
8008
8008
FFF8
ENDCHAR
STARTCHAR 00BD
ENCODING 189
SWIDTH 840 0
DWIDTH 14 0
BBX 13 13 0 0
BITMAP
FFF8
8008
8008
8008
8008
8008
8008
8008
8008
8008
8008
8008
FFF8
ENDCHAR
STARTCHAR 00BE
ENCODING 190
SWIDTH 840 0
DWIDTH 14 0
BBX 13 13 0 0
BITMAP
FFF8
8008
8008
8008
8008
8008
8008
8008
8008
8008
8008
8008
FFF8
ENDCHAR
STARTCHAR 00BF
ENCODING 191
SWIDTH 780 0
DWIDTH 13 0
BBX 11 12 1 0
BITMAP
0180
0180
0000
0180
0180
7F80
FF00
C000
C000
C000
FFE0
7FE0
ENDCHAR
STARTCHAR 00C0
ENCODING 192
SWIDTH 780 0
DWIDTH 13 0
BBX 11 17 1 0
BITMAP
1E00
1E00
0F00
0700
0300
0E00
0E00
1B00
1B00
3980
3180
3180
7FC0
7FC0
E0E0
C060
C060
ENDCHAR
STARTCHAR 00C1
ENCODING 193
SWIDTH 780 0
DWIDTH 13 0
BBX 11 17 1 0
BITMAP
0F00
0F00
1E00
1C00
1800
0E00
0E00
1B00
1B00
3980
3180
3180
7FC0
7FC0
E0E0
C060
C060
ENDCHAR
STARTCHAR 00C2
ENCODING 194
SWIDTH 720 0
DWIDTH 12 0
BBX 12 17 0 0
BITMAP
0600
1F80
79E0
6060
0000
0F00
0F00
0F00
1980
1980
1980
30C0
3FC0
7FE0
6060
6060
C030
ENDCHAR
STARTCHAR 00C3
ENCODING 195
SWIDTH 780 0
DWIDTH 13 0
BBX 13 17 0 0
BITMAP
3E00
7F30
67F0
03E0
0000
0700
0F80
0D80
0D80
18C0
18C0
38E0
3FE0
3FF0
6030
6030
C018
ENDCHAR
STARTCHAR 00C4
ENCODING 196
SWIDTH 780 0
DWIDTH 13 0
BBX 11 15 1 0
BITMAP
3180
3180
0000
0E00
1E00
1B00
1B00
3980
3180
3180
7FC0
7FC0
E0E0
C060
C060
ENDCHAR
STARTCHAR 00C5
ENCODING 197
SWIDTH 720 0
DWIDTH 12 0
BBX 12 17 0 0
BITMAP
0F00
1F80
1F80
0F00
0000
0F00
0F00
0F00
1980
1980
1980
30C0
3FC0
7FE0
6060
6060
C030
ENDCHAR
STARTCHAR 00C6
ENCODING 198
SWIDTH 1320 0
DWIDTH 22 0
BBX 20 12 1 0
BITMAP
0F3FF0
0F7FF0
0F6000
19E000
19E000
39FFE0
30FFE0
3FE000
7FE000
606000
607FF0
C03FF0
ENDCHAR
STARTCHAR 00C7
ENCODING 199
SWIDTH 840 0
DWIDTH 14 0
BBX 12 15 1 -3
BITMAP
7FF0
FFF0
C000
C000
C000
C000
C000
C000
C000
C000
FFF0
7FF0
0300
0F00
0E00
ENDCHAR
STARTCHAR 00C8
ENCODING 200
SWIDTH 840 0
DWIDTH 14 0
BBX 12 17 1 0
BITMAP
1E00
0E00
0700
0700
0380
7FF0
FFF0
C000
C000
C000
FFC0
FFC0
C000
C000
C000
FFF0
7FF0
ENDCHAR
STARTCHAR 00C9
ENCODING 201
SWIDTH 840 0
DWIDTH 14 0
BBX 12 17 1 0
BITMAP
0780
0F00
0E00
1C00
1C00
7FF0
FFF0
C000
C000
C000
FFC0
FFC0
C000
C000
C000
FFF0
7FF0
ENDCHAR
STARTCHAR 00CA
ENCODING 202
SWIDTH 840 0
DWIDTH 14 0
BBX 12 17 1 0
BITMAP
0600
1F80
79E0
6060
0000
7FF0
FFF0
C000
C000
C000
FFC0
FFC0
C000
C000
C000
FFF0
7FF0
ENDCHAR
STARTCHAR 00CB
ENCODING 203
SWIDTH 840 0
DWIDTH 14 0
BBX 12 15 1 0
BITMAP
3180
3180
0000
7FF0
FFF0
C000
C000
C000
FFC0
FFC0
C000
C000
C000
FFF0
7FF0
ENDCHAR
STARTCHAR 00CC
ENCODING 204
SWIDTH 240 0
DWIDTH 4 0
BBX 6 17 -1 0
BITMAP
F0
78
38
1C
1C
30
30
30
30
30
30
30
30
30
30
30
30
ENDCHAR
STARTCHAR 00CD
ENCODING 205
SWIDTH 240 0
DWIDTH 4 0
BBX 6 17 -1 0
BITMAP
3C
78
70
70
E0
30
30
30
30
30
30
30
30
30
30
30
30
ENDCHAR
STARTCHAR 00CE
ENCODING 206
SWIDTH 240 0
DWIDTH 4 0
BBX 10 17 -3 0
BITMAP
0C00
3F00
F3C0
C0C0
0000
0C00
0C00
0C00
0C00
0C00
0C00
0C00
0C00
0C00
0C00
0C00
0C00
ENDCHAR
STARTCHAR 00CF
ENCODING 207
SWIDTH 120 0
DWIDTH 2 0
BBX 6 15 -2 0
BITMAP
CC
CC
00
30
30
30
30
30
30
30
30
30
30
30
30
ENDCHAR
STARTCHAR 00D0
ENCODING 208
SWIDTH 840 0
DWIDTH 14 0
BBX 12 12 1 0
BITMAP
7FE0
7FF0
6030
FC30
FC30
6030
6030
6030
6030
6030
7FF0
7FE0
ENDCHAR
STARTCHAR 00D1
ENCODING 209
SWIDTH 840 0
DWIDTH 14 0
BBX 12 17 1 0
BITMAP
3C00
7E60
67E0
03C0
0000
E030
E030
F030
D830
CC30
CE30
C730
C330
C1B0
C0F0
C070
C070
ENDCHAR
STARTCHAR 00D2
ENCODING 210
SWIDTH 840 0
DWIDTH 14 0
BBX 12 17 1 0
BITMAP
1E00
0F00
0700
0380
0380
7FE0
FFF0
C030
C030
C030
C030
C030
C030
C030
C030
FFF0
7FE0
ENDCHAR
STARTCHAR 00D3
ENCODING 211
SWIDTH 840 0
DWIDTH 14 0
BBX 12 17 1 0
BITMAP
0780
0F00
0E00
1C00
1C00
7FE0
FFF0
C030
C030
C030
C030
C030
C030
C030
C030
FFF0
7FE0
ENDCHAR
STARTCHAR 00D4
ENCODING 212
SWIDTH 840 0
DWIDTH 14 0
BBX 12 17 1 0
BITMAP
0600
1F80
79E0
6060
0000
7FE0
FFF0
C030
C030
C030
C030
C030
C030
C030
C030
FFF0
7FE0
ENDCHAR
STARTCHAR 00D5
ENCODING 213
SWIDTH 840 0
DWIDTH 14 0
BBX 12 17 1 0
BITMAP
3C00
7E60
67E0
03C0
0000
7FE0
FFF0
C030
C030
C030
C030
C030
C030
C030
C030
FFF0
7FE0
ENDCHAR
STARTCHAR 00D6
ENCODING 214
SWIDTH 840 0
DWIDTH 14 0
BBX 12 15 1 0
BITMAP
3180
3180
0000
7FE0
FFF0
C030
C030
C030
C030
C030
C030
C030
C030
FFF0
7FE0
ENDCHAR
STARTCHAR 00D7
ENCODING 215
SWIDTH 600 0
DWIDTH 10 0
BBX 9 9 0 2
BITMAP
E180
7380
3F00
1E00
0C00
1E00
3F00
7380
E180
ENDCHAR
STARTCHAR 00D8
ENCODING 216
SWIDTH 840 0
DWIDTH 14 0
BBX 12 12 1 0
BITMAP
7FE0
FFF0
C070
C0F0
C3F0
C7B0
DE30
FC30
F030
E030
FFF0
7FE0
ENDCHAR
STARTCHAR 00D9
ENCODING 217
SWIDTH 840 0
DWIDTH 14 0
BBX 12 17 1 0
BITMAP
1E00
0F00
0700
0380
0380
C030
C030
C030
C030
C030
C030
C030
C030
C030
C030
FFF0
7FE0
ENDCHAR
STARTCHAR 00DA
ENCODING 218
SWIDTH 840 0
DWIDTH 14 0
BBX 12 17 1 0
BITMAP
0780
0F00
0E00
1C00
1C00
C030
C030
C030
C030
C030
C030
C030
C030
C030
C030
FFF0
7FE0
ENDCHAR
STARTCHAR 00DB
ENCODING 219
SWIDTH 840 0
DWIDTH 14 0
BBX 12 17 1 0
BITMAP
0600
1F80
79E0
6060
0000
C030
C030
C030
C030
C030
C030
C030
C030
C030
C030
FFF0
7FE0
ENDCHAR
STARTCHAR 00DC
ENCODING 220
SWIDTH 840 0
DWIDTH 14 0
BBX 12 15 1 0
BITMAP
3180
3180
0000
C030
C030
C030
C030
C030
C030
C030
C030
C030
C030
FFF0
7FE0
ENDCHAR
STARTCHAR 00DD
ENCODING 221
SWIDTH 720 0
DWIDTH 12 0
BBX 12 17 0 0
BITMAP
0780
0F00
0E00
0C00
1C00
E070
60E0
30C0
1980
0F00
0F00
0600
0600
0600
0600
0600
0600
ENDCHAR
STARTCHAR 00DE
ENCODING 222
SWIDTH 840 0
DWIDTH 14 0
BBX 12 12 1 0
BITMAP
C000
C000
FFE0
FFF0
C030
C030
C030
C030
FFF0
FFE0
C000
C000
ENDCHAR
STARTCHAR 00DF
ENCODING 223
SWIDTH 780 0
DWIDTH 13 0
BBX 11 12 1 0
BITMAP
7FC0
FFE0
C060
C060
C060
CFE0
CFE0
C060
C060
C060
CFE0
CFC0
ENDCHAR
STARTCHAR 00E0
ENCODING 224
SWIDTH 660 0
DWIDTH 11 0
BBX 9 14 1 0
BITMAP
3C00
1C00
1C00
0E00
0600
7F80
FF80
C180
C180
C180
C180
C180
FF80
7F80
ENDCHAR
STARTCHAR 00E1
ENCODING 225
SWIDTH 660 0
DWIDTH 11 0
BBX 9 14 1 0
BITMAP
1E00
1C00
1C00
3800
3000
7F80
FF80
C180
C180
C180
C180
C180
FF80
7F80
ENDCHAR
STARTCHAR 00E2
ENCODING 226
SWIDTH 720 0
DWIDTH 12 0
BBX 10 14 1 0
BITMAP
0C00
3F00
F3C0
C0C0
0000
7FC0
FFC0
C0C0
C0C0
C0C0
C0C0
C0C0
FFC0
7FC0
ENDCHAR
STARTCHAR 00E3
ENCODING 227
SWIDTH 720 0
DWIDTH 12 0
BBX 10 14 1 0
BITMAP
7800
FCC0
CFC0
0780
0000
7FC0
FFC0
C0C0
C0C0
C0C0
C0C0
C0C0
FFC0
7FC0
ENDCHAR
STARTCHAR 00E4
ENCODING 228
SWIDTH 660 0
DWIDTH 11 0
BBX 9 12 1 0
BITMAP
6300
6300
0000
7F80
FF80
C180
C180
C180
C180
C180
FF80
7F80
ENDCHAR
STARTCHAR 00E5
ENCODING 229
SWIDTH 660 0
DWIDTH 11 0
BBX 9 14 1 0
BITMAP
3E00
3E00
3E00
3E00
0000
7F80
FF80
C180
C180
C180
C180
C180
FF80
7F80
ENDCHAR
STARTCHAR 00E6
ENCODING 230
SWIDTH 1020 0
DWIDTH 17 0
BBX 15 9 1 0
BITMAP
7FFC
FFFE
C186
C186
C1FE
C1FE
C180
FFFC
7FFC
ENDCHAR
STARTCHAR 00E7
ENCODING 231
SWIDTH 660 0
DWIDTH 11 0
BBX 10 12 1 -3
BITMAP
7FC0
FFC0
C000
C000
C000
C000
C000
FFC0
7FC0
0600
1E00
1C00
ENDCHAR
STARTCHAR 00E8
ENCODING 232
SWIDTH 660 0
DWIDTH 11 0
BBX 9 14 1 0
BITMAP
3C00
1C00
1C00
0E00
0600
7F00
FF80
C180
C180
FF80
FF80
C000
FF00
7F00
ENDCHAR
STARTCHAR 00E9
ENCODING 233
SWIDTH 660 0
DWIDTH 11 0
BBX 9 14 1 0
BITMAP
1E00
1C00
1C00
3800
3000
7F00
FF80
C180
C180
FF80
FF80
C000
FF00
7F00
ENDCHAR
STARTCHAR 00EA
ENCODING 234
SWIDTH 720 0
DWIDTH 12 0
BBX 10 14 1 0
BITMAP
0C00
3F00
F3C0
C0C0
0000
7F00
FF80
C0C0
C0C0
FFC0
FFC0
C000
FF80
7F80
ENDCHAR
STARTCHAR 00EB
ENCODING 235
SWIDTH 660 0
DWIDTH 11 0
BBX 9 12 1 0
BITMAP
6300
6300
0000
7F00
FF80
C180
C180
FF80
FF80
C000
FF00
7F00
ENDCHAR
STARTCHAR 00EC
ENCODING 236
SWIDTH 240 0
DWIDTH 4 0
BBX 6 14 -1 0
BITMAP
F0
78
38
1C
1C
30
30
30
30
30
30
30
30
30
ENDCHAR
STARTCHAR 00ED
ENCODING 237
SWIDTH 240 0
DWIDTH 4 0
BBX 6 14 -1 0
BITMAP
3C
78
70
70
E0
30
30
30
30
30
30
30
30
30
ENDCHAR
STARTCHAR 00EE
ENCODING 238
SWIDTH 240 0
DWIDTH 4 0
BBX 10 14 -3 0
BITMAP
0C00
3F00
F3C0
C0C0
0000
0C00
0C00
0C00
0C00
0C00
0C00
0C00
0C00
0C00
ENDCHAR
STARTCHAR 00EF
ENCODING 239
SWIDTH 120 0
DWIDTH 2 0
BBX 6 12 -2 0
BITMAP
CC
CC
00
30
30
30
30
30
30
30
30
30
ENDCHAR
STARTCHAR 00F0
ENCODING 240
SWIDTH 660 0
DWIDTH 11 0
BBX 10 12 1 0
BITMAP
3F00
3F80
0180
7FC0
FFC0
C180
C180
C180
C180
C180
FF80
7F80
ENDCHAR
STARTCHAR 00F1
ENCODING 241
SWIDTH 720 0
DWIDTH 12 0
BBX 10 14 1 0
BITMAP
7800
FCC0
CFC0
0780
0000
7F80
FFC0
C0C0
C0C0
C0C0
C0C0
C0C0
C0C0
C0C0
ENDCHAR
STARTCHAR 00F2
ENCODING 242
SWIDTH 660 0
DWIDTH 11 0
BBX 9 14 1 0
BITMAP
3C00
1C00
1C00
0E00
0600
7F00
FF80
C180
C180
C180
C180
C180
FF80
7F00
ENDCHAR
STARTCHAR 00F3
ENCODING 243
SWIDTH 660 0
DWIDTH 11 0
BBX 9 14 1 0
BITMAP
1E00
1C00
1C00
3800
3000
7F00
FF80
C180
C180
C180
C180
C180
FF80
7F00
ENDCHAR
STARTCHAR 00F4
ENCODING 244
SWIDTH 720 0
DWIDTH 12 0
BBX 10 14 1 0
BITMAP
0C00
3F00
F3C0
C0C0
0000
7F80
FFC0
C0C0
C0C0
C0C0
C0C0
C0C0
FFC0
7F80
ENDCHAR
STARTCHAR 00F5
ENCODING 245
SWIDTH 720 0
DWIDTH 12 0
BBX 10 14 1 0
BITMAP
7800
FCC0
CFC0
0780
0000
7F80
FFC0
C0C0
C0C0
C0C0
C0C0
C0C0
FFC0
7F80
ENDCHAR
STARTCHAR 00F6
ENCODING 246
SWIDTH 660 0
DWIDTH 11 0
BBX 9 12 1 0
BITMAP
6300
6300
0000
7F00
FF80
C180
C180
C180
C180
C180
FF80
7F00
ENDCHAR
STARTCHAR 00F7
ENCODING 247
SWIDTH 660 0
DWIDTH 11 0
BBX 9 9 1 2
BITMAP
0C00
0C00
0000
0000
FF80
FF80
0000
0C00
0C00
ENDCHAR
STARTCHAR 00F8
ENCODING 248
SWIDTH 660 0
DWIDTH 11 0
BBX 9 9 1 0
BITMAP
7F00
FF80
C180
C780
DD80
F180
C180
FF80
7F00
ENDCHAR
STARTCHAR 00F9
ENCODING 249
SWIDTH 660 0
DWIDTH 11 0
BBX 9 14 1 0
BITMAP
3C00
1C00
1C00
0E00
0600
C180
C180
C180
C180
C180
C180
C180
FF80
7F00
ENDCHAR
STARTCHAR 00FA
ENCODING 250
SWIDTH 660 0
DWIDTH 11 0
BBX 9 14 1 0
BITMAP
1E00
1C00
1C00
3800
3000
C180
C180
C180
C180
C180
C180
C180
FF80
7F00
ENDCHAR
STARTCHAR 00FB
ENCODING 251
SWIDTH 720 0
DWIDTH 12 0
BBX 10 14 1 0
BITMAP
0C00
3F00
F3C0
C0C0
0000
C0C0
C0C0
C0C0
C0C0
C0C0
C0C0
C0C0
FFC0
7F80
ENDCHAR
STARTCHAR 00FC
ENCODING 252
SWIDTH 660 0
DWIDTH 11 0
BBX 9 12 1 0
BITMAP
6300
6300
0000
C180
C180
C180
C180
C180
C180
C180
FF80
7F00
ENDCHAR
STARTCHAR 00FD
ENCODING 253
SWIDTH 660 0
DWIDTH 11 0
BBX 9 17 1 -3
BITMAP
1E00
1C00
1C00
3800
3000
C180
C180
C180
C180
C180
C180
C180
FF80
7F80
0180
3F80
3F00
ENDCHAR
STARTCHAR 00FE
ENCODING 254
SWIDTH 660 0
DWIDTH 11 0
BBX 9 15 1 -3
BITMAP
C000
C000
C000
FF00
FF80
C180
C180
C180
C180
C180
FF80
FF00
C000
C000
C000
ENDCHAR
STARTCHAR 00FF
ENCODING 255
SWIDTH 660 0
DWIDTH 11 0
BBX 9 15 1 -3
BITMAP
6300
6300
0000
C180
C180
C180
C180
C180
C180
C180
FF80
7F80
0180
3F80
3F00
ENDCHAR
STARTCHAR 0131
ENCODING 305
SWIDTH 240 0
DWIDTH 4 0
BBX 2 9 1 0
BITMAP
C0
C0
C0
C0
C0
C0
C0
C0
C0
ENDCHAR
STARTCHAR 0152
ENCODING 338
SWIDTH 1320 0
DWIDTH 22 0
BBX 20 12 1 0
BITMAP
7FFFF0
FFFFF0
C06000
C06000
C06000
C07FE0
C07FE0
C06000
C06000
C06000
FFFFF0
7FFFF0
ENDCHAR
STARTCHAR 0153
ENCODING 339
SWIDTH 1020 0
DWIDTH 17 0
BBX 15 9 1 0
BITMAP
7FFC
FFFE
C186
C186
C1FE
C1FE
C180
FFFC
7EFC
ENDCHAR
STARTCHAR 02C6
ENCODING 710
SWIDTH 720 0
DWIDTH 12 0
BBX 10 4 1 12
BITMAP
0C00
3F00
F3C0
C0C0
ENDCHAR
STARTCHAR 02C7
ENCODING 711
SWIDTH 720 0
DWIDTH 12 0
BBX 10 4 1 12
BITMAP
8040
E1C0
7F80
1E00
ENDCHAR
STARTCHAR 02C9
ENCODING 713
SWIDTH 540 0
DWIDTH 9 0
BBX 5 1 2 10
BITMAP
F8
ENDCHAR
STARTCHAR 02D8
ENCODING 728
SWIDTH 480 0
DWIDTH 8 0
BBX 5 3 2 9
BITMAP
08
F0
70
ENDCHAR
STARTCHAR 02D9
ENCODING 729
SWIDTH 240 0
DWIDTH 4 0
BBX 2 2 1 13
BITMAP
C0
C0
ENDCHAR
STARTCHAR 02DA
ENCODING 730
SWIDTH 480 0
DWIDTH 8 0
BBX 6 5 1 12
BITMAP
78
FC
CC
FC
78
ENDCHAR
STARTCHAR 02DB
ENCODING 731
SWIDTH 420 0
DWIDTH 7 0
BBX 5 4 0 -2
BITMAP
E0
F8
78
38
ENDCHAR
STARTCHAR 02DC
ENCODING 732
SWIDTH 660 0
DWIDTH 11 0
BBX 9 5 1 12
BITMAP
7800
F980
CD80
CF80
0780
ENDCHAR
STARTCHAR 02DD
ENCODING 733
SWIDTH 480 0
DWIDTH 8 0
BBX 5 3 2 9
BITMAP
58
D0
A0
ENDCHAR
STARTCHAR 037E
ENCODING 894
SWIDTH 180 0
DWIDTH 3 0
BBX 2 8 1 -1
BITMAP
C0
C0
00
00
00
C0
C0
C0
ENDCHAR
STARTCHAR 2013
ENCODING 8211
SWIDTH 660 0
DWIDTH 11 0
BBX 9 2 1 5
BITMAP
FF80
FF80
ENDCHAR
STARTCHAR 2014
ENCODING 8212
SWIDTH 780 0
DWIDTH 13 0
BBX 11 2 1 5
BITMAP
FFE0
FFE0
ENDCHAR
STARTCHAR 2018
ENCODING 8216
SWIDTH 240 0
DWIDTH 4 0
BBX 2 3 1 9
BITMAP
C0
C0
C0
ENDCHAR
STARTCHAR 2019
ENCODING 8217
SWIDTH 240 0
DWIDTH 4 0
BBX 2 3 1 9
BITMAP
C0
C0
C0
ENDCHAR
STARTCHAR 201A
ENCODING 8218
SWIDTH 240 0
DWIDTH 4 0
BBX 2 3 1 -1
BITMAP
C0
C0
C0
ENDCHAR
STARTCHAR 201C
ENCODING 8220
SWIDTH 360 0
DWIDTH 6 0
BBX 4 3 1 9
BITMAP
F0
F0
F0
ENDCHAR
STARTCHAR 201D
ENCODING 8221
SWIDTH 360 0
DWIDTH 6 0
BBX 4 3 1 9
BITMAP
F0
F0
F0
ENDCHAR
STARTCHAR 201E
ENCODING 8222
SWIDTH 360 0
DWIDTH 6 0
BBX 4 3 1 -1
BITMAP
F0
F0
F0
ENDCHAR
STARTCHAR 2020
ENCODING 8224
SWIDTH 840 0
DWIDTH 14 0
BBX 13 13 0 0
BITMAP
FFF8
8008
8008
8008
8008
8008
8008
8008
8008
8008
8008
8008
FFF8
ENDCHAR
STARTCHAR 2021
ENCODING 8225
SWIDTH 840 0
DWIDTH 14 0
BBX 13 13 0 0
BITMAP
FFF8
8008
8008
8008
8008
8008
8008
8008
8008
8008
8008
8008
FFF8
ENDCHAR
STARTCHAR 2022
ENCODING 8226
SWIDTH 540 0
DWIDTH 9 0
BBX 5 5 2 4
BITMAP
70
F8
F8
F8
70
ENDCHAR
STARTCHAR 2026
ENCODING 8230
SWIDTH 480 0
DWIDTH 8 0
BBX 6 2 1 0
BITMAP
FC
FC
ENDCHAR
STARTCHAR 2030
ENCODING 8240
SWIDTH 1140 0
DWIDTH 19 0
BBX 17 12 1 0
BITMAP
7D8000
FF8000
C70000
C70000
C70000
FFCF00
7FFF80
0E3180
0E3180
0E3180
1FFF80
1BFF00
ENDCHAR
STARTCHAR 2039
ENCODING 8249
SWIDTH 660 0
DWIDTH 11 0
BBX 10 9 1 1
BITMAP
01C0
0FC0
7E00
F000
E000
FC00
1F80
03C0
0040
ENDCHAR
STARTCHAR 203A
ENCODING 8250
SWIDTH 660 0
DWIDTH 11 0
BBX 10 8 1 1
BITMAP
E000
FC00
3F80
03C0
03C0
1F80
FC00
E000
ENDCHAR
STARTCHAR 2044
ENCODING 8260
SWIDTH 480 0
DWIDTH 8 0
BBX 6 12 1 0
BITMAP
0C
0C
18
18
30
30
30
60
60
E0
C0
C0
ENDCHAR
STARTCHAR 20A3
ENCODING 8355
SWIDTH 840 0
DWIDTH 14 0
BBX 12 12 1 0
BITMAP
3FF0
7FF0
6000
6000
6000
7FC0
7FC0
6000
F000
F000
6000
6000
ENDCHAR
STARTCHAR 20A4
ENCODING 8356
SWIDTH 840 0
DWIDTH 14 0
BBX 12 12 1 0
BITMAP
0FF0
1FF0
3000
3000
FFC0
FFC0
FFC0
FFC0
3000
3000
FFF0
FFF0
ENDCHAR
STARTCHAR 20A7
ENCODING 8359
SWIDTH 840 0
DWIDTH 14 0
BBX 12 12 1 0
BITMAP
7FE0
7FF0
6030
6030
6030
6030
7FF0
7FE0
F000
F000
6000
6000
ENDCHAR
STARTCHAR 20AC
ENCODING 8364
SWIDTH 840 0
DWIDTH 14 0
BBX 12 12 1 0
BITMAP
3FF0
7FF0
6000
6000
FFC0
FFC0
FFC0
FFC0
6000
6000
7FF0
3FF0
ENDCHAR
STARTCHAR 2116
ENCODING 8470
SWIDTH 780 0
DWIDTH 13 0
BBX 12 6 1 6
BITMAP
87F0
C610
A610
9610
9E10
8FF0
ENDCHAR
STARTCHAR 2122
ENCODING 8482
SWIDTH 840 0
DWIDTH 14 0
BBX 12 6 1 6
BITMAP
FE10
2330
2330
2370
22D0
22D0
ENDCHAR
STARTCHAR 2202
ENCODING 8706
SWIDTH 780 0
DWIDTH 13 0
BBX 13 13 0 0
BITMAP
7FE0
8010
8008
8008
8008
8008
8008
8008
8008
8008
8008
8008
FFF0
ENDCHAR
STARTCHAR 2206
ENCODING 8710
SWIDTH 780 0
DWIDTH 13 0
BBX 13 13 0 0
BITMAP
7FE0
8010
8008
8008
8008
8008
8008
8008
8008
8008
8008
8008
FFF0
ENDCHAR
STARTCHAR 220F
ENCODING 8719
SWIDTH 780 0
DWIDTH 13 0
BBX 13 13 0 0
BITMAP
7FE0
8010
8008
8008
8008
8008
8008
8008
8008
8008
8008
8008
FFF0
ENDCHAR
STARTCHAR 2211
ENCODING 8721
SWIDTH 780 0
DWIDTH 13 0
BBX 13 13 0 0
BITMAP
7FE0
8010
8008
8008
8008
8008
8008
8008
8008
8008
8008
8008
FFF0
ENDCHAR
STARTCHAR 2212
ENCODING 8722
SWIDTH 660 0
DWIDTH 11 0
BBX 9 2 1 5
BITMAP
FF80
FF80
ENDCHAR
STARTCHAR 2215
ENCODING 8725
SWIDTH 480 0
DWIDTH 8 0
BBX 6 12 1 0
BITMAP
0C
0C
18
18
30
30
30
60
60
E0
C0
C0
ENDCHAR
STARTCHAR 2219
ENCODING 8729
SWIDTH 240 0
DWIDTH 4 0
BBX 2 2 1 5
BITMAP
C0
C0
ENDCHAR
STARTCHAR 2248
ENCODING 8776
SWIDTH 780 0
DWIDTH 13 0
BBX 13 13 0 0
BITMAP
7FE0
8010
8008
8008
8008
8008
8008
8008
8008
8008
8008
8008
FFF0
ENDCHAR
STARTCHAR 2264
ENCODING 8804
SWIDTH 780 0
DWIDTH 13 0
BBX 13 13 0 0
BITMAP
7FE0
8010
8008
8008
8008
8008
8008
8008
8008
8008
8008
8008
FFF0
ENDCHAR
STARTCHAR 2265
ENCODING 8805
SWIDTH 780 0
DWIDTH 13 0
BBX 13 13 0 0
BITMAP
7FE0
8010
8008
8008
8008
8008
8008
8008
8008
8008
8008
8008
FFF0
ENDCHAR
STARTCHAR F001
ENCODING 61441
SWIDTH 540 0
DWIDTH 9 0
BBX 0 0 0 0
BITMAP
ENDCHAR
STARTCHAR F002
ENCODING 61442
SWIDTH 540 0
DWIDTH 9 0
BBX 0 0 0 0
BITMAP
ENDCHAR
STARTCHAR FB01
ENCODING 64257
SWIDTH 540 0
DWIDTH 9 0
BBX 0 0 0 0
BITMAP
ENDCHAR
STARTCHAR FB02
ENCODING 64258
SWIDTH 540 0
DWIDTH 9 0
BBX 0 0 0 0
BITMAP
ENDCHAR
ENDFONT
